<?xml version="1.0" standalone="no"?>
<!DOCTYPE svg PUBLIC "-//W3C//DTD SVG 20010904//EN"
 "http://www.w3.org/TR/2001/REC-SVG-20010904/DTD/svg10.dtd">
<svg version="1.0" xmlns="http://www.w3.org/2000/svg"
 width="1920.000000pt" height="1080.000000pt" viewBox="0 0 1920.000000 1080.000000"
 preserveAspectRatio="xMidYMid meet">
<metadata>
Created by potrace 1.16, written by Peter Selinger 2001-2019
</metadata>
<g transform="translate(0.000000,1080.000000) scale(0.100000,-0.100000)"
fill="#000000" stroke="none">
<path d="M0 5400 l0 -5400 9600 0 9600 0 0 5400 0 5400 -9600 0 -9600 0 0
-5400z m1537 4294 c47 -17 111 -81 142 -142 25 -48 55 -72 93 -72 50 0 77 19
114 77 75 119 131 157 229 156 104 -1 162 -37 229 -142 57 -88 66 -95 123 -88
52 6 56 9 126 117 53 81 109 113 197 113 92 0 164 -40 217 -123 61 -95 77
-110 117 -110 56 0 80 17 124 89 23 37 52 76 64 88 65 61 181 74 271 29 57
-27 83 -55 132 -140 18 -30 40 -53 57 -60 27 -10 28 -12 28 -88 l0 -77 -32 5
c-78 14 -120 46 -181 136 -50 76 -62 88 -93 94 -51 9 -79 -8 -115 -71 -55 -98
-107 -138 -203 -156 -108 -20 -197 21 -257 117 -18 30 -42 66 -52 79 -20 27
-78 42 -107 29 -11 -5 -43 -45 -72 -89 -46 -69 -61 -84 -111 -110 -48 -24 -71
-29 -125 -29 -104 1 -179 51 -231 152 -26 50 -52 72 -95 79 -45 7 -57 -2 -112
-89 -68 -105 -133 -143 -244 -142 -100 1 -159 39 -219 143 -68 116 -149 124
-202 19 -46 -91 -119 -146 -216 -162 l-33 -5 0 78 0 79 30 5 c34 7 43 17 102
106 50 76 79 99 145 117 53 14 96 11 160 -12z m13706 -174 c-4 -14 1 -22 18
-29 46 -17 71 20 27 40 -40 17 76 0 150 -22 91 -28 178 -82 292 -179 203 -175
372 -241 621 -241 210 0 397 47 671 170 76 34 181 74 235 88 91 25 113 27 308
27 192 0 221 -2 339 -27 126 -27 379 -106 397 -124 5 -5 -75 -200 -192 -468
-111 -253 -203 -462 -204 -464 -5 -5 -125 43 -125 50 0 4 7 12 15 19 17 15 20
36 4 45 -12 8 -49 -23 -49 -42 0 -16 6 -17 -79 12 -80 27 -247 65 -286 65 -18
0 -28 7 -35 24 -5 13 -19 27 -30 31 -27 9 -48 -9 -32 -27 8 -11 -17 -13 -131
-14 -178 -2 -302 -26 -477 -94 -197 -76 -289 -98 -486 -115 -69 -6 -71 -5 -70
17 1 31 -27 35 -55 7 -21 -21 -25 -22 -103 -10 -179 27 -379 117 -520 233 -44
37 -114 94 -153 127 -69 57 -71 60 -45 63 37 4 36 32 -1 36 -22 3 -30 -1 -34
-17 -5 -19 -5 -19 -36 0 -58 35 -188 70 -283 76 -84 5 -91 7 -86 25 4 17 0 19
-29 16 -27 -2 -34 -7 -33 -25 0 -18 -7 -22 -43 -28 -24 -3 -69 -15 -100 -26
-31 -10 -57 -18 -59 -16 -1 1 7 23 18 49 18 42 23 47 47 42 33 -6 56 9 47 31
-4 12 -13 15 -31 11 -14 -4 -25 -5 -25 -3 0 2 19 48 43 103 42 96 44 99 73 96
18 -2 36 3 43 12 19 22 4 38 -29 31 l-29 -6 60 138 61 138 36 0 c27 0 37 5 40
18 3 13 -3 17 -27 17 -35 0 -35 0 -20 33 6 14 28 31 49 40 35 14 37 13 33 -4
-7 -24 41 -49 59 -31 9 9 6 17 -11 35 l-22 24 43 12 c86 23 124 29 185 30 56
1 61 -1 56 -19z m-1013 -963 c0 -2 -25 -59 -55 -127 -30 -68 -55 -125 -55
-127 0 -2 17 8 38 21 194 122 481 206 652 191 153 -14 230 -51 378 -182 262
-232 533 -343 832 -343 142 0 259 22 389 71 197 76 319 107 484 124 l67 7 0
-3461 0 -3461 -7840 0 -7840 0 0 3645 0 3645 6475 0 c3561 0 6475 -1 6475 -3z
m3796 -4789 c8 -37 16 -46 74 -80 87 -53 99 -64 126 -123 17 -36 24 -68 24
-115 0 -110 -55 -197 -159 -250 -53 -27 -71 -47 -71 -79 0 -39 30 -73 93 -109
97 -55 137 -123 137 -231 0 -114 -47 -185 -167 -253 -94 -53 -86 -107 27 -183
41 -28 88 -69 105 -93 26 -38 30 -54 34 -123 5 -128 -37 -196 -172 -273 -79
-47 -77 -109 8 -162 125 -79 164 -136 165 -239 0 -121 -36 -181 -151 -255 -65
-40 -79 -54 -79 -75 0 -25 0 -25 -95 -25 l-95 0 0 47 c0 89 47 153 158 215 91
52 90 107 -3 161 -68 39 -110 82 -136 135 -17 39 -20 60 -17 138 3 84 6 96 33
135 19 27 59 61 105 90 72 44 75 48 78 87 3 40 2 41 -65 85 -125 81 -154 130
-154 258 0 61 5 90 21 123 25 53 43 69 128 122 66 40 67 41 67 84 0 43 -2 45
-57 77 -118 69 -160 138 -161 263 -1 119 43 190 153 245 54 27 70 45 70 81 0
35 -10 46 -105 108 -64 42 -111 116 -118 188 -2 29 -3 56 0 61 2 4 46 7 97 7
l92 0 10 -42z"/>
<path d="M4503 7440 c-121 -22 -249 -92 -323 -178 -183 -212 -199 -612 -34
-854 107 -156 266 -233 484 -232 185 1 301 45 416 159 125 123 177 262 177
475 1 147 -14 216 -73 337 -67 136 -182 233 -330 278 -66 19 -244 28 -317 15z
m249 -210 c166 -51 249 -215 235 -464 -12 -212 -97 -340 -253 -381 -169 -44
-333 17 -407 152 -40 75 -57 154 -57 273 0 203 64 340 189 405 76 39 197 45
293 15z"/>
<path d="M2300 6810 l0 -620 110 0 110 0 0 620 0 620 -110 0 -110 0 0 -620z"/>
<path d="M2820 6810 l0 -620 115 0 115 0 1 163 0 162 124 130 c68 71 126 127
128 125 2 -3 88 -134 192 -292 l188 -288 139 0 139 0 -19 28 c-117 166 -475
688 -478 697 -3 7 101 122 235 258 133 134 241 247 241 251 0 3 -65 6 -144 6
l-144 0 -299 -319 -298 -320 -3 320 -2 319 -115 0 -115 0 0 -620z"/>
<path d="M5440 6810 l0 -620 105 0 105 0 0 457 c0 264 4 453 9 448 5 -6 66
-163 136 -350 70 -187 136 -364 147 -392 l19 -53 109 0 109 0 19 53 c11 28 77
205 147 392 70 187 131 344 136 349 5 6 9 -183 9 -447 l0 -457 105 0 105 0 0
620 0 621 -152 -3 -151 -3 -161 -432 c-89 -238 -163 -433 -166 -433 -3 0 -77
195 -166 433 l-161 432 -152 3 -151 3 0 -621z"/>
<path d="M7000 6810 l0 -620 110 0 110 0 0 458 1 457 151 -403 152 -403 109 3
110 3 151 403 151 402 3 -460 2 -460 105 0 105 0 0 620 0 620 -149 0 -149 0
-30 -77 c-16 -43 -89 -239 -162 -435 -73 -197 -136 -356 -139 -353 -4 2 -78
197 -166 434 l-160 431 -152 0 -153 0 0 -620z"/>
<path d="M12020 5975 l0 -125 35 0 35 0 0 125 0 125 -35 0 -35 0 0 -125z"/>
<path d="M11437 5882 l-27 -28 88 -87 88 -87 27 28 27 28 -88 87 -88 87 -27
-28z"/>
<path d="M12557 5822 l-87 -88 28 -27 28 -27 89 90 89 89 -24 26 c-13 14 -26
25 -29 25 -4 0 -46 -40 -94 -88z"/>
<path d="M11915 5791 c-143 -42 -282 -146 -366 -274 -152 -234 -90 -548 165
-825 69 -75 124 -160 156 -241 11 -29 19 -54 18 -55 -2 -1 -15 -7 -30 -14 -28
-12 -38 -45 -18 -57 6 -4 5 -13 -3 -25 -9 -15 -9 -25 -1 -38 8 -12 8 -22 1
-33 -19 -30 -1 -49 47 -49 34 0 46 -4 50 -18 4 -10 19 -31 35 -46 58 -56 159
-41 197 30 17 30 23 34 60 34 48 0 71 19 56 47 -7 12 -7 25 -1 36 6 11 6 23 0
35 -6 11 -6 24 0 34 14 25 0 48 -33 55 -34 7 -33 13 18 118 35 71 60 107 171
237 110 129 179 273 203 421 27 169 -37 335 -181 475 -147 144 -366 205 -544
153z m45 -784 c15 3 38 0 50 -7 19 -10 24 -10 32 4 11 20 42 21 57 2 9 -11 18
-12 41 -3 23 9 33 8 42 -1 10 -10 16 -6 29 20 l16 31 7 -59 c4 -32 9 -67 12
-76 4 -14 -1 -18 -20 -18 -14 0 -26 4 -26 9 0 5 -9 7 -20 4 -23 -6 -25 0 -9
29 15 29 -1 42 -35 27 -22 -11 -29 -10 -43 4 -16 15 -18 15 -35 0 -16 -14 -24
-15 -50 -5 -39 15 -51 7 -46 -30 4 -25 2 -29 -15 -24 -11 2 -28 0 -38 -7 -10
-6 -20 -9 -23 -7 -2 3 3 41 12 85 15 76 17 78 25 48 8 -28 13 -31 37 -26z m14
-169 c3 -29 11 -116 16 -193 6 -77 13 -166 16 -197 l6 -58 -45 0 -45 0 -7 83
c-36 439 -38 413 27 416 25 1 27 -2 32 -51z m264 37 c3 -3 -47 -351 -65 -452
-5 -31 -7 -33 -49 -33 -41 0 -44 2 -39 23 2 12 18 119 35 237 18 118 33 221
36 229 3 10 14 11 42 6 20 -4 38 -8 40 -10z"/>
<path d="M3820 5554 c-164 -35 -296 -137 -369 -286 -59 -121 -75 -190 -75
-338 0 -100 5 -141 23 -205 60 -214 202 -359 402 -411 79 -21 244 -24 319 -5
96 23 197 79 264 146 63 63 135 180 120 195 -9 8 -177 80 -188 80 -2 0 -18
-24 -35 -52 -57 -101 -136 -154 -247 -168 -270 -34 -437 129 -438 425 0 231
104 380 290 415 176 33 341 -36 400 -168 10 -23 23 -42 28 -42 6 0 52 17 103
37 108 42 107 38 36 145 -105 160 -280 249 -488 247 -44 0 -109 -7 -145 -15z"/>
<path d="M2647 5543 c-4 -7 -424 -1047 -476 -1180 l-21 -53 123 0 122 0 29 83
c16 45 37 106 48 135 l20 52 241 -2 242 -3 46 -130 46 -130 122 -3 122 -3 -14
33 c-8 18 -119 297 -248 620 l-234 588 -82 0 c-45 0 -84 -3 -86 -7z m89 -771
c-87 -1 -161 -1 -163 1 -3 4 71 215 137 391 l23 59 81 -224 81 -224 -159 -3z"/>
<path d="M5043 5533 c-4 -10 -115 -289 -248 -620 l-242 -603 122 0 122 0 48
135 47 135 242 0 241 0 19 -52 c10 -29 32 -90 48 -135 l30 -83 120 0 c92 0
119 3 115 13 -3 6 -114 285 -247 620 l-242 607 -84 0 c-71 0 -86 -3 -91 -17z
m182 -558 l73 -200 -160 -3 c-89 -1 -162 -1 -164 1 -2 2 33 104 78 226 69 188
83 219 91 200 5 -13 42 -114 82 -224z"/>
<path d="M5860 4930 l0 -622 263 5 c232 4 270 7 337 26 208 62 341 198 391
401 20 81 18 308 -4 389 -55 205 -186 336 -392 394 -59 17 -110 21 -332 25
l-263 4 0 -622z m465 410 c202 -29 290 -117 316 -318 22 -163 -15 -315 -95
-395 -72 -72 -161 -102 -340 -113 l-116 -7 0 422 0 421 83 0 c45 0 114 -5 152
-10z"/>
<path d="M7080 4930 l0 -620 415 0 415 0 0 105 0 105 -300 0 -300 0 0 155 0
155 280 0 280 0 0 100 0 100 -280 0 -280 0 0 160 0 160 300 0 300 0 0 100 0
100 -415 0 -415 0 0 -620z"/>
<path d="M8160 4930 l0 -620 105 0 105 0 0 457 c0 264 4 453 9 448 5 -6 66
-163 136 -350 70 -187 136 -364 147 -392 l19 -53 109 0 109 0 19 53 c11 28 77
205 147 392 70 187 131 344 136 349 5 6 9 -183 9 -447 l0 -457 105 0 105 0 0
620 0 621 -152 -3 -151 -3 -161 -432 c-89 -238 -163 -433 -166 -433 -3 0 -77
195 -166 433 l-161 432 -152 3 -151 3 0 -621z"/>
<path d="M9796 5169 l234 -381 0 -239 0 -239 115 0 115 0 0 243 0 242 229 375
230 375 -132 3 c-110 2 -134 0 -143 -13 -6 -8 -76 -128 -154 -265 -79 -138
-147 -249 -152 -248 -5 2 -75 120 -156 263 l-147 260 -137 3 -137 3 235 -382z"/>
<path d="M11170 5230 l0 -40 125 0 125 0 0 40 0 40 -125 0 -125 0 0 -40z"/>
<path d="M12690 5230 l0 -40 125 0 125 0 0 40 0 40 -125 0 -125 0 0 -40z"/>
<path d="M11497 4692 l-87 -88 28 -27 28 -27 87 88 87 88 -28 27 -28 27 -87
-88z"/>
<path d="M12497 4752 l-27 -28 90 -89 90 -90 27 28 28 27 -91 90 -90 91 -27
-29z"/>
<path d="M6372 2527 c-45 -14 -118 -80 -145 -131 -17 -31 -22 -58 -22 -117 0
-67 3 -81 30 -124 58 -94 150 -142 251 -132 220 23 313 292 154 446 -66 63
-176 88 -268 58z m15 -243 c5 -13 8 -13 22 0 11 9 42 14 97 15 l81 1 10 -32
10 -33 13 33 c10 26 17 32 41 32 16 0 29 -1 29 -3 0 -1 -10 -30 -23 -62 -22
-57 -25 -60 -60 -63 -25 -2 -37 1 -37 10 -1 7 -7 27 -16 43 -14 29 -14 29 -9
3 10 -52 2 -56 -106 -56 l-99 0 0 39 c0 28 -4 39 -15 39 -11 0 -15 -11 -15
-40 0 -36 -2 -40 -25 -40 -22 0 -25 4 -25 39 0 22 -4 41 -10 43 -5 2 -7 13 -4
25 5 20 13 22 71 22 47 0 66 -4 70 -15z"/>
<path d="M10173 2442 c24 -25 28 -40 35 -118 l8 -89 103 100 c56 55 107 108
112 118 9 16 0 17 -138 17 l-147 0 27 -28z"/>
<path d="M8950 2433 c-8 -3 -25 -15 -37 -26 -22 -19 -23 -28 -23 -169 l0 -149
48 3 47 3 3 100 c2 62 7 102 14 106 8 5 31 -26 65 -88 29 -52 58 -102 64 -109
12 -15 96 -19 115 -6 6 4 34 51 63 105 29 53 59 97 66 97 11 0 15 -23 17 -102
l3 -103 48 -3 47 -3 0 145 c0 139 -1 146 -24 173 -20 23 -32 28 -70 28 -57 0
-69 -11 -140 -135 -29 -52 -60 -96 -67 -98 -9 -1 -36 39 -69 100 -66 122 -107
154 -170 131z"/>
<path d="M9595 2429 c-50 -29 -55 -45 -55 -196 l0 -143 49 0 c60 0 61 2 61
126 0 52 4 94 8 94 5 0 35 -48 68 -107 l59 -108 56 -3 c64 -3 60 -7 118 102
54 100 64 116 73 116 5 0 8 -44 8 -97 0 -54 4 -104 9 -111 5 -9 24 -12 52 -10
l44 3 3 130 c3 144 -5 178 -49 200 -63 33 -108 12 -159 -74 -21 -36 -49 -86
-62 -110 -13 -23 -28 -44 -33 -45 -4 0 -32 42 -61 94 -30 52 -64 105 -77 117
-27 28 -83 38 -112 22z"/>
<path d="M7790 2260 l0 -170 45 0 45 0 0 170 0 170 -45 0 -45 0 0 -170z"/>
<path d="M7950 2426 c-3 -2 -4 -79 -2 -171 l3 -166 42 3 42 3 0 165 0 165 -40
3 c-23 2 -43 1 -45 -2z"/>
<path d="M8160 2384 c-81 -67 -100 -91 -100 -128 0 -29 9 -42 63 -88 34 -30
72 -60 84 -66 25 -14 133 -16 133 -4 0 5 -30 33 -66 63 -36 30 -77 64 -91 76
l-26 21 44 42 c24 23 63 58 87 77 23 20 42 39 42 44 0 5 -26 9 -57 9 -54 0
-62 -4 -113 -46z"/>
<path d="M8410 2413 c-46 -31 -49 -43 -50 -159 0 -97 2 -113 20 -132 30 -31
48 -34 239 -30 l173 3 24 30 c22 27 24 40 24 128 0 164 -19 177 -247 177 -133
0 -163 -3 -183 -17z m298 -79 c19 -13 22 -24 22 -78 0 -35 -5 -67 -12 -74 -8
-8 -49 -12 -119 -12 -123 0 -129 4 -137 80 -4 42 -1 52 21 74 24 24 33 26 114
26 64 0 95 -4 111 -16z"/>
<path d="M3765 2408 c-6 -20 -55 -257 -55 -268 0 -5 14 -9 30 -10 17 0 44 0
61 0 56 -1 99 60 99 139 0 63 -46 90 -102 60 -19 -10 -20 -9 -14 15 3 14 9 37
12 51 5 19 2 25 -10 25 -9 0 -18 -6 -21 -12z"/>
<path d="M4405 2388 c-13 -63 -16 -71 -28 -59 -14 14 -49 14 -81 -1 -51 -22
-84 -139 -53 -182 13 -18 27 -20 102 -14 l39 3 28 130 c32 152 32 155 14 155
-8 0 -17 -14 -21 -32z"/>
<path d="M2205 2378 c-3 -13 -16 -74 -29 -135 l-23 -113 83 0 c68 0 84 3 84
15 0 12 -13 15 -61 15 l-62 0 7 42 c4 22 9 45 12 50 3 4 30 8 60 8 41 0 54 4
54 15 0 12 -13 15 -55 15 -39 0 -53 4 -51 13 3 6 7 24 10 40 6 26 9 27 71 27
51 0 65 3 65 15 0 12 -16 15 -80 15 -74 0 -80 -1 -85 -22z"/>
<path d="M2857 2330 c-40 -25 -70 -125 -51 -175 11 -27 52 -37 85 -21 16 8 29
10 29 5 0 -19 30 -8 35 14 42 184 42 177 13 177 -13 0 -39 2 -58 5 -19 3 -43
0 -53 -5z"/>
<path d="M3100 2322 c-13 -9 -21 -11 -16 -4 5 8 1 12 -12 12 -16 0 -22 -15
-40 -97 -11 -54 -19 -99 -17 -102 15 -15 34 16 45 73 9 50 19 71 38 86 54 43
67 24 47 -70 -18 -88 -18 -90 -1 -90 10 0 20 24 31 75 15 65 21 78 46 90 15 8
33 15 39 15 13 0 12 -41 -4 -117 -12 -58 -12 -63 3 -63 24 0 60 172 41 195
-17 21 -53 19 -84 -6 -20 -16 -26 -17 -26 -6 0 30 -52 35 -90 9z"/>
<path d="M3403 2328 c-43 -21 -76 -122 -57 -173 11 -27 52 -37 85 -21 16 8 29
10 29 5 0 -6 8 -9 17 -7 12 2 22 25 35 83 23 106 23 119 -2 112 -11 -3 -23 -1
-26 4 -7 12 -54 10 -81 -3z"/>
<path d="M3980 2312 c-36 -36 -57 -103 -44 -140 14 -39 55 -56 99 -42 37 12
50 24 41 39 -4 5 -20 3 -38 -6 -39 -20 -62 -8 -66 35 l-3 31 68 3 68 3 3 32
c7 70 -75 98 -128 45z"/>
<path d="M4642 2324 c-14 -9 -22 -11 -22 -4 0 6 -8 10 -17 8 -13 -2 -22 -25
-35 -88 -21 -105 -21 -110 -4 -110 9 0 20 25 30 74 17 75 41 106 81 106 22 0
17 -69 -11 -162 -4 -13 0 -18 14 -18 15 0 21 12 31 70 10 54 19 74 38 90 56
44 71 21 49 -74 -20 -83 -20 -86 -1 -86 8 0 17 10 20 23 34 151 34 174 -1 183
-18 5 -37 1 -57 -11 -27 -16 -30 -16 -39 -1 -11 20 -47 21 -76 0z"/>
<path d="M4937 2329 c-41 -24 -73 -139 -49 -176 20 -31 99 -36 123 -7 19 23 0
35 -27 17 -36 -23 -77 -4 -72 35 3 26 5 27 71 30 l67 3 0 39 c0 22 -7 45 -16
54 -17 18 -70 21 -97 5z"/>
<path d="M5332 2324 c-48 -33 -70 -136 -38 -179 19 -26 88 -25 118 1 48 43 64
138 28 174 -24 24 -77 26 -108 4z"/>
<path d="M5582 2324 c-14 -9 -22 -11 -22 -4 0 6 -8 10 -17 8 -13 -2 -22 -25
-35 -88 -21 -105 -21 -110 -4 -110 9 0 20 25 30 74 17 75 41 106 81 106 22 0
17 -69 -11 -162 -4 -13 0 -18 14 -18 15 0 21 12 31 70 10 54 19 74 38 90 56
44 71 21 49 -74 -20 -83 -20 -86 -1 -86 8 0 17 10 20 23 34 151 34 174 -1 183
-18 5 -37 1 -57 -11 -27 -16 -30 -16 -39 -1 -11 20 -47 21 -76 0z"/>
<path d="M7085 2307 c-58 -58 -59 -148 -1 -175 64 -31 136 32 139 124 2 37 -2
49 -22 65 -36 29 -78 24 -116 -14z"/>
<path d="M7319 2325 c-55 -30 -79 -144 -39 -180 18 -16 27 -17 60 -8 47 12 54
-3 19 -38 -18 -18 -29 -20 -65 -15 -51 7 -68 -9 -27 -25 37 -14 92 -5 116 20
12 12 28 58 43 123 29 128 29 128 2 128 -13 -1 -36 2 -53 5 -17 3 -41 -1 -56
-10z"/>
<path d="M17864 3731 c3 -20 10 -37 16 -39 5 -2 10 -11 10 -21 0 -9 7 -27 16
-40 16 -23 110 -88 135 -93 20 -4 49 -64 49 -99 0 -38 -42 -82 -118 -121 -71
-38 -101 -86 -109 -175 -6 -75 6 -128 40 -176 11 -16 25 -26 33 -23 8 3 14 -1
14 -9 0 -7 27 -30 60 -50 49 -30 62 -43 71 -75 18 -61 0 -93 -80 -139 -111
-65 -141 -112 -141 -219 0 -106 32 -161 129 -223 41 -27 81 -59 88 -71 31 -56
8 -108 -68 -153 -93 -54 -144 -109 -132 -142 3 -7 0 -13 -7 -13 -15 0 -10
-126 7 -170 19 -47 66 -95 131 -131 72 -42 99 -99 71 -151 -8 -16 -8 -22 2
-29 10 -6 8 -8 -6 -7 -24 1 -131 -61 -162 -94 -26 -27 -53 -88 -53 -118 0 -15
7 -20 28 -20 15 0 33 5 40 12 9 9 12 9 12 0 0 -24 39 -12 52 15 7 16 37 42 67
60 68 41 113 81 106 93 -4 6 1 10 9 10 27 0 61 152 39 174 -4 3 -8 13 -9 20
-5 37 -19 59 -60 95 -30 26 -51 38 -62 34 -9 -3 -14 -2 -10 2 5 5 -5 16 -21
26 -43 26 -63 62 -63 113 -1 55 6 64 93 116 76 45 110 88 129 159 9 34 9 46 0
51 -10 6 -10 8 0 12 15 5 3 73 -16 93 -8 7 -14 18 -14 22 0 15 -51 58 -103 88
-66 38 -87 68 -87 124 0 58 7 67 96 123 40 26 80 61 92 80 27 44 48 130 37
154 -5 11 -7 24 -6 31 6 40 -100 161 -133 150 -15 -5 -86 73 -86 94 0 11 -5
19 -10 19 -7 0 -7 6 -1 18 6 9 12 29 16 45 4 20 20 35 61 58 41 24 52 34 42
41 -9 6 -7 8 8 3 28 -7 94 62 72 76 -10 7 -9 9 3 9 30 0 47 94 29 161 -17 62
-51 103 -123 145 -73 42 -109 78 -100 99 4 13 -5 15 -62 14 l-67 -2 6 -36z"/>
</g>
</svg>
